# AST/ASF file generated using VICON BodyLanguage
# -----------------------------------------------
:version 1.10
:name VICON
:units
  mass 1.0
  length 0.45
  angle deg
:documentation
   .ast/.asf automatically generated from VICON data using
   VICON BodyBuilder and BodyLanguage model FoxedUp or BRILLIANT.MOD
:root
   order TX TY TZ RX RY RZ
   axis XYZ
   position 0 0 0  
   orientation 0 0 0 
:bonedata
  begin
     id 1 
     name lhipjoint
     direction 0.682418 -0.694059 0.22932 
     length 2.25561 
     axis 0 0 0  XYZ
  end
  begin
     id 2 
     name lfemur
     direction 0.34202 -0.939693 0  
     length 6.96448  
     axis 0 0 20  XYZ
    dof rx ry rz
    limits (-160.0 20.0)
           (-70.0 70.0)
           (-60.0 70.0)
  end
  begin
     id 3 
     name ltibia
     direction 0.34202 -0.939693 0   
     length 6.88553   
     axis 0 0 20   XYZ
    dof rx
    limits (-10.0 170.0)
  end
  begin
     id 4 
     name lfoot
     direction 0.0723587 -0.198804 0.977364   
     length 1.88518   
     axis -90 7.62852e-016 20   XYZ
    dof rx rz
    limits (-45.0 90.0)
           (-70.0 20.0)
  end
  begin
     id 5 
     name ltoes
     direction 1.53558e-011 -4.21962e-011 1   
     length 0.952124   
     axis -90 7.62852e-016 20   XYZ
    dof rx
    limits (-90.0 20.0)
  end
  begin
     id 6 
     name rhipjoint
     direction -0.657603 -0.71533 0.236348   
     length 2.18854  
     axis 0 0 0  XYZ 
  end
  begin
     id 7 
     name rfemur
     direction -0.34202 -0.939693 0   
     length 6.86686   
     axis 0 0 -20   XYZ
    dof rx ry rz
    limits (-160.0 20.0)
           (-70.0 70.0)
           (-70.0 60.0)
  end
  begin
     id 8 
     name rtibia
     direction -0.34202 -0.939693 0   
     length 6.59503   
     axis 0 0 -20   XYZ
    dof rx
    limits (-10.0 170.0)
 end
 begin
     id 9 
     name rfoot
     direction -0.101977 -0.280179 0.954516   
     length 1.93723  
     axis -90 -7.62852e-016 -20   XYZ
    dof rx rz
    limits (-45.0 90.0)
           (-20.0 70.0)
  end
  begin
     id 10 
     name rtoes
     direction -1.53564e-011 -4.21897e-011 1   
     length 0.970315   
     axis -90 -7.62852e-016 -20   XYZ
    dof rx
    limits (-90.0 20.0)
  end
  begin
     id 11 
     name lowerback
     direction -0.0339559 0.999421 -0.00235966   
     length 1.88543   
     axis 0 0 0   XYZ
    dof rx ry rz
    limits (-20.0 45.0)
           (-30.0 30.0)
           (-30.0 30.0)
  end
  begin
     id 12 
     name upperback
     direction 0.00401003 0.999739 0.0224689   
     length 1.8856   
     axis 0 0 0   XYZ
    dof rx ry rz
    limits (-20.0 45.0)
           (-30.0 30.0)
           (-30.0 30.0)
  end
  begin
     id 13 
     name thorax
     direction 0.0198619 0.999546 0.0226536   
     length 1.88352   
     axis 0 0 0   XYZ
    dof rx ry rz
    limits (-20.0 45.0)
           (-30.0 30.0)
           (-30.0 30.0)
  end
  begin
     id 14 
     name lowerneck
     direction -0.0461848 0.998632 0.0245198   
     length 1.34895   
     axis 0 0 0   XYZ
    dof rx ry rz
    limits (-20.0 45.0)
           (-30.0 30.0)
           (-30.0 30.0)
  end
  begin
     id 15 
     name upperneck
     direction -0.0180627 0.994724 -0.100984   
     length 1.35214   
     axis 0 0 0   XYZ
    dof rx ry rz
    limits (-20.0 45.0)
           (-30.0 30.0)
           (-30.0 30.0)
  end
  begin
     id 16
     name head
     direction -0.00374772 0.999293 -0.037403  
     length 1.3568  
     axis 0 0 0   XYZ
    dof rx ry rz
    limits (-20.0 45.0)
           (-30.0 30.0)
           (-30.0 30.0)
  end
  begin
     id 17 
     name lclavicle
     direction 0.971773 0.191119 0.138311  
     length 2.84954  
     axis 0 0 0   XYZ
    dof ry rz
    limits (-20.0 10.0)
           (0.0 20.0)
  end
  begin
     id 18 
     name lhumerus
     direction 1 -4.4897e-011 -2.43761e-027   
     length 4.40919   
     axis 180 -30 -90   XYZ
    dof rx ry rz
    limits (-60.0 90.0)
           (-90.0 90.0)
           (-90.0 90.0)
  end
  begin
     id 19
     name lradius
     direction 1 -4.4896e-011 -9.1621e-027   
     length 3.03857   
     axis 180 -30 -90   XYZ
    dof rx
    limits (-10.0 170.0)
  end
  begin
     id 20
     name lwrist
     direction 1 -4.4896e-011 -1.41363e-026   
     length 1.51928   
     axis 1.07133e-014 90 90   XYZ
    dof ry
    limits (-180.0 0.0)
 end
  begin
     id 21 
     name lhand
     direction 1 -4.48978e-011 -2.82725e-026   
     length 0.523208   
     axis 1.80403e-014 90 90   XYZ
    dof rx rz
    limits (-90.0 90.0)
           (-45.0 45.0)
  end
  begin
     id 22 
     name lfingers
     direction 1 -4.48977e-011 -5.6545e-026   
     length 0.421824   
     axis 3.60806e-014 90 90   XYZ
    dof rx
    limits (0.0 90.0)
  end
  begin
     id 23
     name lthumb
     direction 0.707107 -6.34962e-011 0.707107   
     length 0.605657   
     axis -90 45 2.85299e-015   XYZ
    dof rx rz
    limits (-45.0 45.0)
           (-45.0 45.0)
  end
  begin
     id 24 
     name rclavicle
     direction -0.957247 0.24311 0.156766   
     length 3.12406  
     axis 0 0 0   XYZ 
    dof ry rz
    limits (-10.0 20.0)
           (-20.0 0.0)
  end
  begin
     id 25 
     name rhumerus
     direction -1 -4.48964e-011 -1.70632e-027  
     length 4.61969   
     axis 180 30 90   XYZ
    dof rx ry rz
    limits (-90.0 60.0)
           (-90.0 90.0)
           (-90.0 90.0)
  end
  begin
     id 26 
     name rradius
     direction -1 -4.48966e-011 -6.60395e-027   
     length 3.09382   
     axis 180 30 90   XYZ
    dof rx
    limits (-10.0 170.0)
  end
  begin
     id 27 
     name rwrist
     direction -1 -4.48963e-011 -1.41363e-026   
     length 1.54691   
     axis 1.07133e-014 -90 -90   XYZ
    dof ry
    limits (-180.0 0.0)
  end
  begin
     id 28
     name rhand
     direction -1 -4.49013e-011 -2.82725e-026   
     length 0.500896   
     axis 1.80403e-014 -90 -90   XYZ
    dof rx rz
    limits (-90.0 90.0)
           (-45.0 45.0)
  end
  begin
     id 29
     name rfingers
     direction -1 -4.48902e-011 -5.6545e-026   
     length 0.403835   
     axis 3.60806e-014 -90 -90   XYZ
    dof rx
    limits (0.0 90.0)
  end
  begin
     id 30
     name rthumb
     direction -0.707107 -6.34953e-011 0.707107   
     length 0.579829   
     axis -90 -45 -2.85299e-015   XYZ
    dof rx rz
    limits (-45.0 45.0)
           (-45.0 45.0)
  end
:hierarchy
  begin
    root lhipjoint rhipjoint lowerback
    lhipjoint lfemur
    lfemur ltibia
    ltibia lfoot
    lfoot ltoes
    rhipjoint rfemur
    rfemur rtibia
    rtibia rfoot
    rfoot rtoes
    lowerback upperback
    upperback thorax
    thorax lowerneck lclavicle rclavicle
    lowerneck upperneck
    upperneck head
    lclavicle lhumerus
    lhumerus lradius
    lradius lwrist
    lwrist lhand lthumb
    lhand lfingers
    rclavicle rhumerus
    rhumerus rradius
    rradius rwrist
    rwrist rhand rthumb
    rhand rfingers
  end

#!OML:ASF E:\madness\Project 1\Capture day 1\Session 1\Female1.ASF
:FULLY-SPECIFIED
:DEGREES
692
root 31.5318 15.8379 -4.35644 -347.404 -52.1246 361.792
lowerback 3.15067 3.42414 -3.55226
upperback -1.31127 4.34307 -1.91769
thorax -3.23116 2.2104 -0.251514
lowerneck 6.924 23.5321 12.1457
upperneck -3.71756 32.649 -26.4568
head 4.2845 16.7014 -7.49664
rclavicle -3.77691e-014 2.36554e-014
rhumerus -64.9782 -3.12442 -45.3961
rradius 84.8036
rwrist -10.6395
rhand -8.99705 -47.5805
rfingers 7.12502
rthumb 16.9493 -76.8609
lclavicle -3.77691e-014 2.36554e-014
lhumerus 1.48985 -48.2745 20.2996
lradius 101.882
lwrist 1.50987
lhand -35.1717 0.0460111
lfingers 7.12502
lthumb -8.31044 29.8625
rfemur -21.4379 -13.1564 27.8502
rtibia 33.5375
rfoot -36.5435 -18.2439
rtoes 38.7371
lfemur -42.2713 -23.2964 -5.9462
ltibia 41.5089
lfoot -14.3705 -8.19722
ltoes 3.35691
693
root 31.5222 15.8303 -4.35566 -347.449 -52.2404 361.828
lowerback 3.12683 3.44729 -3.54576
upperback -1.3638 4.37073 -1.99726
thorax -3.26611 2.22369 -0.339139
lowerneck 6.92464 23.3204 12.56
upperneck -3.38719 32.4478 -26.2432
head 4.37227 16.5778 -7.49629
rclavicle 4.41799e-014 -1.80894e-014
rhumerus -64.0199 -3.00213 -45.7371
rradius 85.2709
rwrist -10.5607
rhand -9.21436 -47.4811
rfingers 7.12502
rthumb 16.7401 -76.7794
lclavicle 4.41799e-014 -1.80894e-014
lhumerus 1.37123 -48.6092 20.1583
lradius 101.872
lwrist 1.62321
lhand -35.1438 -0.107031
lfingers 7.12502
lthumb -8.28355 29.7106
rfemur -21.5527 -13.1152 27.7989
rtibia 33.7945
rfoot -36.4119 -18.1803
rtoes 38.696
lfemur -42.152 -23.1481 -6.07783
ltibia 41.4729
lfoot -14.4688 -8.17072
ltoes 5.41089
694
root 31.5108 15.8206 -4.35356 -347.351 -52.3968 361.723
lowerback 3.01476 3.49796 -3.41646
upperback -1.42991 4.44353 -2.11531
thorax -3.25363 2.25634 -0.531225
lowerneck 6.82589 23.1023 12.788
upperneck -3.03551 32.2036 -25.9109
head 4.42086 16.4266 -7.44918
rclavicle 7.40473e-015 -2.18663e-014
rhumerus -63.3526 -3.01736 -46.1579
rradius 85.8703
rwrist -10.419
rhand -9.63716 -46.7709
rfingers 7.12502
rthumb 16.333 -76.1032
lclavicle 7.40473e-015 -2.18663e-014
lhumerus 1.36978 -48.9938 19.8851
lradius 101.787
lwrist 1.68773
lhand -34.9605 -0.332717
lfingers 7.12502
lthumb -8.10663 29.4918
rfemur -21.6856 -13.0925 27.8541
rtibia 34.0906
rfoot -36.4516 -17.7739
rtoes 39.364
lfemur -42.0161 -22.831 -6.1969
ltibia 41.4367
lfoot -14.4083 -7.96745
ltoes 5.95282
695
root 31.5016 15.8152 -4.34879 -347.272 -52.5853 361.728
lowerback 2.81318 3.50478 -3.30396
upperback -1.51537 4.46101 -2.2246
thorax -3.21135 2.26186 -0.69611
lowerneck 6.75477 22.9459 12.5704
upperneck -2.81469 31.9566 -25.3878
head 4.31847 16.2871 -7.33458
rclavicle -1.91827e-014 2.38542e-015
rhumerus -62.5791 -2.80881 -46.628
rradius 86.3969
rwrist -10.3959
rhand -10.7478 -44.5013
rfingers 7.12502
rthumb 15.2634 -73.9181
lclavicle -1.91827e-014 2.38542e-015
lhumerus 1.15451 -49.3215 19.8662
lradius 101.568
lwrist 1.65698
lhand -34.8441 -0.515348
lfingers 7.12502
lthumb -7.99431 29.3135
rfemur -21.8826 -13.1662 27.8534
rtibia 34.3713
rfoot -36.4342 -17.369
rtoes 39.6735
lfemur -41.8825 -22.5397 -6.38032
ltibia 41.3634
lfoot -14.8819 -7.31349
ltoes 3.0417
696
root 31.4825 15.8134 -4.34385 -347.426 -52.7765 361.836
lowerback 2.58785 3.43729 -3.41303
upperback -1.52126 4.37774 -2.21367
thorax -3.09857 2.22202 -0.604749
lowerneck 6.81892 22.8087 12.2837
upperneck -2.73688 31.7217 -25.0149
head 4.17409 16.1725 -7.27359
rclavicle 1.19668e-013 -1.23246e-014
rhumerus -61.5306 -2.36551 -47.0754
rradius 86.851
rwrist -10.3258
rhand -10.538 -44.6231
rfingers 7.12502
rthumb 15.4655 -74.0245
lclavicle 1.19668e-013 -1.23246e-014
lhumerus 0.493615 -49.5304 20.3039
lradius 101.31
lwrist 1.71402
lhand -34.7073 -0.867583
lfingers 7.12502
lthumb -7.8623 28.9662
rfemur -21.809 -13.3272 27.7666
rtibia 34.5204
rfoot -36.2938 -17.2601
rtoes 39.1284
lfemur -41.4238 -22.4244 -6.63297
ltibia 41.1685
lfoot -15.3004 -6.78727
ltoes 2.27846
697
root 31.4657 15.8155 -4.33884 -347.661 -52.9912 361.988
lowerback 2.3504 3.26662 -3.74914
upperback -1.44403 4.15954 -1.9856
thorax -2.92284 2.12057 -0.154843
lowerneck 6.93315 22.6076 12.7143
upperneck -2.59238 31.5562 -25.4751
head 4.32411 16.0904 -7.46015
rclavicle -6.42571e-014 -3.97569e-016
rhumerus -60.0829 -1.68209 -47.3864
rradius 87.2848
rwrist -10.2536
rhand -10.1587 -44.5845
rfingers 7.12502
rthumb 15.8308 -73.9572
lclavicle -6.42571e-014 -3.97569e-016
lhumerus -0.863144 -49.5124 21.4673
lradius 101.06
lwrist 1.76479
lhand -34.5755 -1.15741
lfingers 7.12502
lthumb -7.73507 28.6811
rfemur -21.6707 -13.4772 27.6214
rtibia 34.5954
rfoot -36.0578 -17.342
rtoes 38.2205
lfemur -40.9363 -22.4299 -6.90645
ltibia 40.9262
lfoot -15.6636 -6.01463
ltoes 0.307146
698
root 31.4423 15.8337 -4.33475 -348.185 -53.0674 362.376
lowerback 2.20265 3.083 -4.24134
upperback -1.29437 3.91615 -1.79335
thorax -2.72608 2.00646 0.341708
lowerneck 6.41526 22.7162 11.7033
upperneck -2.36909 31.5655 -24.7607
head 4.18187 16.0488 -7.12876
rclavicle 2.46493e-014 1.13307e-014
rhumerus -58.8014 -1.2063 -47.7276
rradius 87.7412
rwrist -10.2828
rhand -10.183 -44.5094
rfingers 7.12502
rthumb 15.8074 -73.8841
lclavicle 2.46493e-014 1.13307e-014
lhumerus -2.03087 -49.4732 22.4688
lradius 100.923
lwrist 1.78033
lhand -34.4656 -0.952015
lfingers 7.12502
lthumb -7.62897 28.8904
rfemur -21.3394 -13.5234 27.305
rtibia 34.576
rfoot -35.9595 -17.6806
rtoes 37.0658
lfemur -40.332 -22.5914 -7.34095
ltibia 40.591
lfoot -15.845 -5.2124
ltoes -2.0433
